<svg width="28" height="27" viewBox="0 0 28 27" fill="none" xmlns="http://www.w3.org/2000/svg">
<path d="M24.5 7.6499H20.8017L18.6667 5.3999H11.6667V7.6499H17.64L19.775 9.8999H24.5V23.3999H5.83333V13.2749H3.5V23.3999C3.5 24.6374 4.55 25.6499 5.83333 25.6499H24.5C25.7833 25.6499 26.8333 24.6374 26.8333 23.3999V9.8999C26.8333 8.6624 25.7833 7.6499 24.5 7.6499ZM9.33333 16.6499C9.33333 19.7549 11.9467 22.2749 15.1667 22.2749C18.3867 22.2749 21 19.7549 21 16.6499C21 13.5449 18.3867 11.0249 15.1667 11.0249C11.9467 11.0249 9.33333 13.5449 9.33333 16.6499ZM15.1667 13.2749C17.0917 13.2749 18.6667 14.7937 18.6667 16.6499C18.6667 18.5062 17.0917 20.0249 15.1667 20.0249C13.2417 20.0249 11.6667 18.5062 11.6667 16.6499C11.6667 14.7937 13.2417 13.2749 15.1667 13.2749ZM5.83333 7.6499H9.33333V5.3999H5.83333V2.0249H3.5V5.3999H0V7.6499H3.5V11.0249H5.83333V7.6499Z" fill="#EBA417"/>
</svg>
