<svg width="114" height="96" viewBox="0 0 114 96" fill="none" xmlns="http://www.w3.org/2000/svg">
<rect width="114" height="96" fill="#C4C4C4"/>
<path d="M79.2174 36.7143H71.637L67.2609 32.4286H52.913V36.7143H65.1565L69.5326 41H79.2174V66.7143H40.9565V47.4286H36.1739V66.7143C36.1739 69.0714 38.3261 71 40.9565 71H79.2174C81.8478 71 84 69.0714 84 66.7143V41C84 38.6429 81.8478 36.7143 79.2174 36.7143ZM48.1304 53.8571C48.1304 59.7714 53.487 64.5714 60.087 64.5714C66.687 64.5714 72.0435 59.7714 72.0435 53.8571C72.0435 47.9429 66.687 43.1429 60.087 43.1429C53.487 43.1429 48.1304 47.9429 48.1304 53.8571ZM60.087 47.4286C64.0326 47.4286 67.2609 50.3214 67.2609 53.8571C67.2609 57.3929 64.0326 60.2857 60.087 60.2857C56.1413 60.2857 52.913 57.3929 52.913 53.8571C52.913 50.3214 56.1413 47.4286 60.087 47.4286ZM40.9565 36.7143H48.1304V32.4286H40.9565V26H36.1739V32.4286H29V36.7143H36.1739V43.1429H40.9565V36.7143Z" fill="#A8A8B3"/>
</svg>
