<svg width="120" height="120" viewBox="0 0 120 120" fill="none" xmlns="http://www.w3.org/2000/svg">
<g clip-path="url(#clip0)">
<path d="M113.377 120C117.034 120 120 117.035 120 113.377V6.62297C120 2.96484 117.034 0 113.377 0H6.62297C2.96437 0 0 2.96484 0 6.62297V113.377C0 117.035 2.96437 120 6.62297 120H113.377" fill="#395185"/>
<path d="M82.7977 120V73.53H98.3963L100.732 55.4198H82.7977V43.8567C82.7977 38.6133 84.2541 35.04 91.7733 35.04L101.363 35.0358V18.8381C99.7041 18.6173 94.0116 18.1242 87.3891 18.1242C73.5619 18.1242 64.096 26.564 64.096 42.0637V55.4198H48.4575V73.53H64.096V120H82.7977" fill="white"/>
</g>
<defs>
<clipPath id="clip0">
<rect width="120" height="120" fill="white"/>
</clipPath>
</defs>
</svg>
