<svg width="167" height="24" viewBox="0 0 167 24" fill="none" xmlns="http://www.w3.org/2000/svg">
<path d="M3.88672 0.9375L9.46484 14.8594L15.043 0.9375H17.9609V18H15.7109V11.3555L15.9219 4.18359L10.3203 18H8.59766L3.00781 4.21875L3.23047 11.3555V18H0.980469V0.9375H3.88672ZM24.1836 11.3203V18H21.9336V0.9375H28.2266C30.0938 0.9375 31.5547 1.41406 32.6094 2.36719C33.6719 3.32031 34.2031 4.58203 34.2031 6.15234C34.2031 7.80859 33.6836 9.08594 32.6445 9.98438C31.6133 10.875 30.1328 11.3203 28.2031 11.3203H24.1836ZM24.1836 9.48047H28.2266C29.4297 9.48047 30.3516 9.19922 30.9922 8.63672C31.6328 8.06641 31.9531 7.24609 31.9531 6.17578C31.9531 5.16016 31.6328 4.34766 30.9922 3.73828C30.3516 3.12891 29.4727 2.8125 28.3555 2.78906H24.1836V9.48047ZM43.0273 18V0.9375H47.8438C49.3281 0.9375 50.6406 1.26562 51.7812 1.92188C52.9219 2.57812 53.8008 3.51172 54.418 4.72266C55.043 5.93359 55.3594 7.32422 55.3672 8.89453V9.98438C55.3672 11.5938 55.0547 13.0039 54.4297 14.2148C53.8125 15.4258 52.9258 16.3555 51.7695 17.0039C50.6211 17.6523 49.2812 17.9844 47.75 18H43.0273ZM45.2773 2.78906V16.1602H47.6445C49.3789 16.1602 50.7266 15.6211 51.6875 14.543C52.6562 13.4648 53.1406 11.9297 53.1406 9.9375V8.94141C53.1406 7.00391 52.6836 5.5 51.7695 4.42969C50.8633 3.35156 49.5742 2.80469 47.9023 2.78906H45.2773ZM63.6992 18.2344C61.9805 18.2344 60.582 17.6719 59.5039 16.5469C58.4258 15.4141 57.8867 13.9023 57.8867 12.0117V11.6133C57.8867 10.3555 58.125 9.23438 58.6016 8.25C59.0859 7.25781 59.7578 6.48438 60.6172 5.92969C61.4844 5.36719 62.4219 5.08594 63.4297 5.08594C65.0781 5.08594 66.3594 5.62891 67.2734 6.71484C68.1875 7.80078 68.6445 9.35547 68.6445 11.3789V12.2812H60.0547C60.0859 13.5312 60.4492 14.543 61.1445 15.3164C61.8477 16.082 62.7383 16.4648 63.8164 16.4648C64.582 16.4648 65.2305 16.3086 65.7617 15.9961C66.293 15.6836 66.7578 15.2695 67.1562 14.7539L68.4805 15.7852C67.418 17.418 65.8242 18.2344 63.6992 18.2344ZM63.4297 6.86719C62.5547 6.86719 61.8203 7.1875 61.2266 7.82812C60.6328 8.46094 60.2656 9.35156 60.125 10.5H66.4766V10.3359C66.4141 9.23438 66.1172 8.38281 65.5859 7.78125C65.0547 7.17188 64.3359 6.86719 63.4297 6.86719ZM76.25 16.4648C77.0234 16.4648 77.6992 16.2305 78.2773 15.7617C78.8555 15.293 79.1758 14.707 79.2383 14.0039H81.2891C81.25 14.7305 81 15.4219 80.5391 16.0781C80.0781 16.7344 79.4609 17.2578 78.6875 17.6484C77.9219 18.0391 77.1094 18.2344 76.25 18.2344C74.5234 18.2344 73.1484 17.6602 72.125 16.5117C71.1094 15.3555 70.6016 13.7773 70.6016 11.7773V11.4141C70.6016 10.1797 70.8281 9.08203 71.2812 8.12109C71.7344 7.16016 72.3828 6.41406 73.2266 5.88281C74.0781 5.35156 75.082 5.08594 76.2383 5.08594C77.6602 5.08594 78.8398 5.51172 79.7773 6.36328C80.7227 7.21484 81.2266 8.32031 81.2891 9.67969H79.2383C79.1758 8.85938 78.8633 8.1875 78.3008 7.66406C77.7461 7.13281 77.0586 6.86719 76.2383 6.86719C75.1367 6.86719 74.2812 7.26562 73.6719 8.0625C73.0703 8.85156 72.7695 9.99609 72.7695 11.4961V11.9062C72.7695 13.3672 73.0703 14.4922 73.6719 15.2812C74.2734 16.0703 75.1328 16.4648 76.25 16.4648ZM83.1523 11.543C83.1523 10.3008 83.3945 9.18359 83.8789 8.19141C84.3711 7.19922 85.0508 6.43359 85.918 5.89453C86.793 5.35547 87.7891 5.08594 88.9062 5.08594C90.6328 5.08594 92.0273 5.68359 93.0898 6.87891C94.1602 8.07422 94.6953 9.66406 94.6953 11.6484V11.8008C94.6953 13.0352 94.457 14.1445 93.9805 15.1289C93.5117 16.1055 92.8359 16.8672 91.9531 17.4141C91.0781 17.9609 90.0703 18.2344 88.9297 18.2344C87.2109 18.2344 85.8164 17.6367 84.7461 16.4414C83.6836 15.2461 83.1523 13.6641 83.1523 11.6953V11.543ZM85.332 11.8008C85.332 13.207 85.6562 14.3359 86.3047 15.1875C86.9609 16.0391 87.8359 16.4648 88.9297 16.4648C90.0312 16.4648 90.9062 16.0352 91.5547 15.1758C92.2031 14.3086 92.5273 13.0977 92.5273 11.543C92.5273 10.1523 92.1953 9.02734 91.5312 8.16797C90.875 7.30078 90 6.86719 88.9062 6.86719C87.8359 6.86719 86.9727 7.29297 86.3164 8.14453C85.6602 8.99609 85.332 10.2148 85.332 11.8008ZM103.543 7.26562C103.215 7.21094 102.859 7.18359 102.477 7.18359C101.055 7.18359 100.09 7.78906 99.582 9V18H97.4141V5.32031H99.5234L99.5586 6.78516C100.27 5.65234 101.277 5.08594 102.582 5.08594C103.004 5.08594 103.324 5.14062 103.543 5.25V7.26562ZM112.906 18C112.781 17.75 112.68 17.3047 112.602 16.6641C111.594 17.7109 110.391 18.2344 108.992 18.2344C107.742 18.2344 106.715 17.8828 105.91 17.1797C105.113 16.4688 104.715 15.5703 104.715 14.4844C104.715 13.1641 105.215 12.1406 106.215 11.4141C107.223 10.6797 108.637 10.3125 110.457 10.3125H112.566V9.31641C112.566 8.55859 112.34 7.95703 111.887 7.51172C111.434 7.05859 110.766 6.83203 109.883 6.83203C109.109 6.83203 108.461 7.02734 107.938 7.41797C107.414 7.80859 107.152 8.28125 107.152 8.83594H104.973C104.973 8.20312 105.195 7.59375 105.641 7.00781C106.094 6.41406 106.703 5.94531 107.469 5.60156C108.242 5.25781 109.09 5.08594 110.012 5.08594C111.473 5.08594 112.617 5.45312 113.445 6.1875C114.273 6.91406 114.703 7.91797 114.734 9.19922V15.0352C114.734 16.1992 114.883 17.125 115.18 17.8125V18H112.906ZM109.309 16.3477C109.988 16.3477 110.633 16.1719 111.242 15.8203C111.852 15.4688 112.293 15.0117 112.566 14.4492V11.8477H110.867C108.211 11.8477 106.883 12.625 106.883 14.1797C106.883 14.8594 107.109 15.3906 107.562 15.7734C108.016 16.1562 108.598 16.3477 109.309 16.3477ZM123.219 16.4648C123.992 16.4648 124.668 16.2305 125.246 15.7617C125.824 15.293 126.145 14.707 126.207 14.0039H128.258C128.219 14.7305 127.969 15.4219 127.508 16.0781C127.047 16.7344 126.43 17.2578 125.656 17.6484C124.891 18.0391 124.078 18.2344 123.219 18.2344C121.492 18.2344 120.117 17.6602 119.094 16.5117C118.078 15.3555 117.57 13.7773 117.57 11.7773V11.4141C117.57 10.1797 117.797 9.08203 118.25 8.12109C118.703 7.16016 119.352 6.41406 120.195 5.88281C121.047 5.35156 122.051 5.08594 123.207 5.08594C124.629 5.08594 125.809 5.51172 126.746 6.36328C127.691 7.21484 128.195 8.32031 128.258 9.67969H126.207C126.145 8.85938 125.832 8.1875 125.27 7.66406C124.715 7.13281 124.027 6.86719 123.207 6.86719C122.105 6.86719 121.25 7.26562 120.641 8.0625C120.039 8.85156 119.738 9.99609 119.738 11.4961V11.9062C119.738 13.3672 120.039 14.4922 120.641 15.2812C121.242 16.0703 122.102 16.4648 123.219 16.4648ZM123.57 18.1055L123.43 18.7148C124.625 18.9258 125.223 19.6016 125.223 20.7422C125.223 21.5 124.91 22.0977 124.285 22.5352C123.66 22.9805 122.789 23.2031 121.672 23.2031L121.59 21.9492C122.207 21.9492 122.684 21.8477 123.02 21.6445C123.363 21.4414 123.535 21.1562 123.535 20.7891C123.535 20.4453 123.41 20.1914 123.16 20.0273C122.91 19.8633 122.402 19.7461 121.637 19.6758L122.012 18.1055H123.57ZM130.121 11.543C130.121 10.3008 130.363 9.18359 130.848 8.19141C131.34 7.19922 132.02 6.43359 132.887 5.89453C133.762 5.35547 134.758 5.08594 135.875 5.08594C137.602 5.08594 138.996 5.68359 140.059 6.87891C141.129 8.07422 141.664 9.66406 141.664 11.6484V11.8008C141.664 13.0352 141.426 14.1445 140.949 15.1289C140.48 16.1055 139.805 16.8672 138.922 17.4141C138.047 17.9609 137.039 18.2344 135.898 18.2344C134.18 18.2344 132.785 17.6367 131.715 16.4414C130.652 15.2461 130.121 13.6641 130.121 11.6953V11.543ZM132.301 11.8008C132.301 13.207 132.625 14.3359 133.273 15.1875C133.93 16.0391 134.805 16.4648 135.898 16.4648C137 16.4648 137.875 16.0352 138.523 15.1758C139.172 14.3086 139.496 13.0977 139.496 11.543C139.496 10.1523 139.164 9.02734 138.5 8.16797C137.844 7.30078 136.969 6.86719 135.875 6.86719C134.805 6.86719 133.941 7.29297 133.285 8.14453C132.629 8.99609 132.301 10.2148 132.301 11.8008ZM139.953 0.375C139.953 1.21875 139.711 1.90234 139.227 2.42578C138.75 2.94922 138.152 3.21094 137.434 3.21094C137.113 3.21094 136.836 3.17188 136.602 3.09375C136.367 3.01562 136.059 2.85547 135.676 2.61328C135.301 2.37109 135.027 2.22656 134.855 2.17969C134.691 2.125 134.5 2.09766 134.281 2.09766C133.961 2.09766 133.688 2.22266 133.461 2.47266C133.234 2.71484 133.121 3.02734 133.121 3.41016L131.668 3.32812C131.668 2.49219 131.902 1.80078 132.371 1.25391C132.848 0.707031 133.449 0.433594 134.176 0.433594C134.449 0.433594 134.695 0.472656 134.914 0.550781C135.133 0.628906 135.43 0.78125 135.805 1.00781C136.18 1.23437 136.465 1.38281 136.66 1.45312C136.863 1.52344 137.086 1.55859 137.328 1.55859C137.664 1.55859 137.941 1.42578 138.16 1.16016C138.387 0.894531 138.5 0.585938 138.5 0.234375L139.953 0.375ZM149.645 18.2344C147.926 18.2344 146.527 17.6719 145.449 16.5469C144.371 15.4141 143.832 13.9023 143.832 12.0117V11.6133C143.832 10.3555 144.07 9.23438 144.547 8.25C145.031 7.25781 145.703 6.48438 146.562 5.92969C147.43 5.36719 148.367 5.08594 149.375 5.08594C151.023 5.08594 152.305 5.62891 153.219 6.71484C154.133 7.80078 154.59 9.35547 154.59 11.3789V12.2812H146C146.031 13.5312 146.395 14.543 147.09 15.3164C147.793 16.082 148.684 16.4648 149.762 16.4648C150.527 16.4648 151.176 16.3086 151.707 15.9961C152.238 15.6836 152.703 15.2695 153.102 14.7539L154.426 15.7852C153.363 17.418 151.77 18.2344 149.645 18.2344ZM149.375 6.86719C148.5 6.86719 147.766 7.1875 147.172 7.82812C146.578 8.46094 146.211 9.35156 146.07 10.5H152.422V10.3359C152.359 9.23438 152.062 8.38281 151.531 7.78125C151 7.17188 150.281 6.86719 149.375 6.86719ZM164.492 14.6367C164.492 14.0508 164.27 13.5977 163.824 13.2773C163.387 12.9492 162.617 12.668 161.516 12.4336C160.422 12.1992 159.551 11.918 158.902 11.5898C158.262 11.2617 157.785 10.8711 157.473 10.418C157.168 9.96484 157.016 9.42578 157.016 8.80078C157.016 7.76172 157.453 6.88281 158.328 6.16406C159.211 5.44531 160.336 5.08594 161.703 5.08594C163.141 5.08594 164.305 5.45703 165.195 6.19922C166.094 6.94141 166.543 7.89062 166.543 9.04688H164.363C164.363 8.45312 164.109 7.94141 163.602 7.51172C163.102 7.08203 162.469 6.86719 161.703 6.86719C160.914 6.86719 160.297 7.03906 159.852 7.38281C159.406 7.72656 159.184 8.17578 159.184 8.73047C159.184 9.25391 159.391 9.64844 159.805 9.91406C160.219 10.1797 160.965 10.4336 162.043 10.6758C163.129 10.918 164.008 11.207 164.68 11.543C165.352 11.8789 165.848 12.2852 166.168 12.7617C166.496 13.2305 166.66 13.8047 166.66 14.4844C166.66 15.6172 166.207 16.5273 165.301 17.2148C164.395 17.8945 163.219 18.2344 161.773 18.2344C160.758 18.2344 159.859 18.0547 159.078 17.6953C158.297 17.3359 157.684 16.8359 157.238 16.1953C156.801 15.5469 156.582 14.8477 156.582 14.0977H158.75C158.789 14.8242 159.078 15.4023 159.617 15.832C160.164 16.2539 160.883 16.4648 161.773 16.4648C162.594 16.4648 163.25 16.3008 163.742 15.9727C164.242 15.6367 164.492 15.1914 164.492 14.6367Z" fill="#E1E1E6"/>
</svg>
