<svg width="120" height="120" viewBox="0 0 120 120" fill="none" xmlns="http://www.w3.org/2000/svg">
<rect x="27" y="30" width="66" height="61" fill="white"/>
<path d="M10.02 110L16.78 85.16C12.3257 77.5243 9.98549 68.84 10 60C10 32.385 32.385 10 60 10C87.615 10 110 32.385 110 60C110 87.615 87.615 110 60 110C51.1639 110.014 42.4833 107.676 34.85 103.225L10.02 110ZM41.955 36.54C41.3093 36.5801 40.6784 36.7502 40.1 37.04C39.5576 37.3471 39.0625 37.7311 38.63 38.18C38.03 38.745 37.69 39.235 37.325 39.71C35.4771 42.115 34.4831 45.0671 34.5 48.1C34.51 50.55 35.15 52.935 36.15 55.165C38.195 59.675 41.56 64.45 46.005 68.875C47.075 69.94 48.12 71.01 49.245 72.005C54.762 76.8623 61.3363 80.3652 68.445 82.235L71.29 82.67C72.215 82.72 73.14 82.65 74.07 82.605C75.5262 82.5298 76.9481 82.1355 78.235 81.45C78.8898 81.1127 79.5288 80.7457 80.15 80.35C80.15 80.35 80.365 80.21 80.775 79.9C81.45 79.4 81.865 79.045 82.425 78.46C82.84 78.03 83.2 77.525 83.475 76.95C83.865 76.135 84.255 74.58 84.415 73.285C84.535 72.295 84.5 71.755 84.485 71.42C84.465 70.885 84.02 70.33 83.535 70.095L80.625 68.79C80.625 68.79 76.275 66.895 73.62 65.685C73.3401 65.563 73.0401 65.4935 72.735 65.48C72.3929 65.4449 72.0473 65.4834 71.7213 65.5929C71.3953 65.7024 71.0965 65.8804 70.845 66.115V66.105C70.82 66.105 70.485 66.39 66.87 70.77C66.6625 71.0488 66.3767 71.2595 66.049 71.3753C65.7213 71.491 65.3666 71.5066 65.03 71.42C64.7042 71.3329 64.3851 71.2226 64.075 71.09C63.455 70.83 63.24 70.73 62.815 70.545L62.79 70.535C59.9295 69.2861 57.2811 67.5992 54.94 65.535C54.31 64.985 53.725 64.385 53.125 63.805C51.1579 61.9212 49.4436 59.7901 48.025 57.465L47.73 56.99C47.5181 56.6708 47.3468 56.3265 47.22 55.965C47.03 55.23 47.525 54.64 47.525 54.64C47.525 54.64 48.74 53.31 49.305 52.59C49.7755 51.9916 50.2144 51.3691 50.62 50.725C51.21 49.775 51.395 48.8 51.085 48.045C49.685 44.625 48.235 41.22 46.745 37.84C46.45 37.17 45.575 36.69 44.78 36.595C44.51 36.565 44.24 36.535 43.97 36.515C43.2985 36.4816 42.6257 36.4883 41.955 36.535V36.54Z" fill="#4FCE5D"/>
</svg>
