<svg width="412" height="318" viewBox="0 0 412 318" fill="none" xmlns="http://www.w3.org/2000/svg">
<g clip-path="url(#clip0)">
<rect x="377.917" y="274" width="59.4137" height="44" fill="#A8A8B3"/>
<path d="M180.199 49.6875C180.199 62.8654 173.416 75.5037 161.344 84.8219C149.271 94.1401 132.897 99.375 115.824 99.375C98.7502 99.375 82.3762 94.1401 70.3035 84.8219C58.2308 75.5037 51.4485 62.8654 51.4485 49.6875C51.4485 36.5096 58.2308 23.8713 70.3035 14.5531C82.3762 5.23492 98.7502 0 115.824 0C132.897 0 149.271 5.23492 161.344 14.5531C173.416 23.8713 180.199 36.5096 180.199 49.6875ZM288.992 130.241C286.577 129.307 283.843 128.983 281.177 129.315C278.511 129.647 276.047 130.617 274.134 132.089L178.602 225.701L110.107 170.607C107.634 169.336 104.668 168.765 101.711 168.989C98.7542 169.214 95.9891 170.221 93.8845 171.839L0 258.375V298.125C0 303.396 2.71294 308.451 7.542 312.179C12.3711 315.906 18.9207 318 25.75 318H386.25C389.632 318 392.98 317.486 396.104 316.487C399.228 315.488 402.067 314.024 404.458 312.179C406.849 310.333 408.746 308.142 410.04 305.731C411.334 303.319 412 300.735 412 298.125V208.688L288.992 130.241Z" fill="#A8A8B3"/>
<rect x="-6.81787" y="274" width="59.4137" height="44" fill="#A8A8B3"/>
</g>
<defs>
<clipPath id="clip0">
<rect width="412" height="318" fill="white"/>
</clipPath>
</defs>
</svg>
