<svg width="406" height="320" viewBox="0 0 406 320" fill="none" xmlns="http://www.w3.org/2000/svg">
<g clip-path="url(#clip0)">
<rect width="405.5" height="319.5" fill="#C4C4C4"/>
<path d="M225.435 141.667H213.444L206.522 135H183.826V141.667H203.193L210.115 148.333H225.435V188.333H164.913V158.333H157.348V188.333C157.348 192 160.752 195 164.913 195H225.435C229.596 195 233 192 233 188.333V148.333C233 144.667 229.596 141.667 225.435 141.667ZM176.261 168.333C176.261 177.533 184.734 185 195.174 185C205.614 185 214.087 177.533 214.087 168.333C214.087 159.133 205.614 151.667 195.174 151.667C184.734 151.667 176.261 159.133 176.261 168.333ZM195.174 158.333C201.415 158.333 206.522 162.833 206.522 168.333C206.522 173.833 201.415 178.333 195.174 178.333C188.933 178.333 183.826 173.833 183.826 168.333C183.826 162.833 188.933 158.333 195.174 158.333ZM164.913 141.667H176.261V135H164.913V125H157.348V135H146V141.667H157.348V151.667H164.913V141.667Z" fill="#A8A8B3"/>
</g>
<defs>
<clipPath id="clip0">
<rect width="405.5" height="319.5" fill="white"/>
</clipPath>
</defs>
</svg>
